<svg xmlns="http://www.w3.org/2000/svg" viewBox="0 0 107.39 101.74"><defs><style>.cls-1{fill:#e8242a;}</style></defs><g id="Layer_2" data-name="Layer 2"><g id="Layer_1-2" data-name="Layer 1"><path class="cls-1" d="M53.42,87.69C51.9,93.9,48.74,98,43.41,100.4a4.77,4.77,0,0,1-1.39.54c-10.59.81-21.34,2.51-30.81-4.35-6.88-5-10.72-11.86-11-20.3C0,65.73-.11,55.14.25,44.59c.32-9.16,4.81-16.24,12.58-21.17a26.57,26.57,0,0,1,15.7-4c3.57.15,7.15.08,10.73,0,1.75,0,2.63.52,2.58,2.42-.09,3-.06,6,0,9,0,1.53-.55,2.18-2.17,2.32-6.8.56-9.81,3.87-9.82,10.67,0,12.56-.06,25.13.07,37.69a9.19,9.19,0,0,0,1.55,4.77c1,1.56,2.86,1.81,4.73,1.17a4,4,0,0,0,2.89-3.94c.08-3.74.06-7.49.07-11.23,0-8.49.05-17,0-25.46,0-2.13.62-3,2.85-2.94q11.47.15,23,0c2.17,0,2.91.73,2.89,2.9-.07,11.31,0,22.63,0,34a17.52,17.52,0,0,0,.13,3,4.58,4.58,0,0,0,9.12-.57c0-14,.09-28,0-41.94,0-4.58-3.56-7.84-8.55-8-2.41-.08-3-1-2.9-3.17.13-2.82-.06-5.66.12-8.48,0-.72,1-2,1.52-2,6.55.11,13.26-.43,19.61.83,11.77,2.34,20.24,13.46,20.4,25.5.13,9.9.31,19.81,0,29.7-.52,14.79-13.15,26.23-26.48,26-3.5-.08-7,0-10.49,0-7.75,0-13.34-4.09-15.71-11.44A24.28,24.28,0,0,0,53.42,87.69Z"/><path class="cls-1" d="M64.18.55c-2,3.52-4.38,6.7-5.84,10.24-2.07,5-5.42,6.41-10.62,5.95-6.24-.54-5.54.63-5.59-5.67,0-3-.11-6,.1-9,.05-.74,1.1-2,1.71-2C50.32,0,56.71,0,63.09,0,63.31,0,63.53.23,64.18.55Z"/></g></g></svg>